<?xml version="1.0" standalone="no"?>
<!DOCTYPE svg PUBLIC "-//W3C//DTD SVG 20010904//EN"
 "http://www.w3.org/TR/2001/REC-SVG-20010904/DTD/svg10.dtd">
<svg version="1.0" xmlns="http://www.w3.org/2000/svg"
 width="142.000000pt" height="142.000000pt" viewBox="0 0 142.000000 142.000000"
 preserveAspectRatio="xMidYMid meet">

<g transform="translate(0.000000,142.000000) scale(0.100000,-0.100000)"
fill="#ffffff" stroke="none">
<path d="M220 1285 c-63 -8 -129 -20 -148 -26 -64 -21 -62 -5 -60 -539 l3
-483 27 -20 c26 -19 31 -20 80 -7 30 7 134 15 234 18 172 4 183 3 225 -18 24
-13 51 -30 59 -39 8 -10 26 -25 39 -34 22 -15 26 -15 55 0 17 9 38 24 46 33 8
10 31 27 50 39 32 19 50 21 181 21 87 0 182 -6 235 -15 103 -18 127 -15 151
22 16 25 18 67 21 474 2 501 1 512 -58 541 -50 24 -314 52 -423 45 -84 -6
-153 -28 -209 -69 -15 -10 -22 -10 -40 1 -90 56 -121 65 -238 67 -63 2 -167
-3 -230 -11z m348 -110 c86 -35 82 -14 82 -471 0 -222 -2 -404 -5 -404 -3 0
-22 7 -42 15 -75 32 -162 37 -313 21 -79 -9 -149 -16 -156 -16 -20 0 -21 822
-1 838 22 18 207 41 302 38 55 -2 106 -10 133 -21z m585 6 c70 -10 129 -20
132 -23 3 -3 8 -702 5 -845 0 -17 -25 -16 -39 1 -15 17 -242 41 -316 32 -30
-3 -77 -15 -105 -26 -28 -11 -53 -20 -55 -20 -3 0 -5 182 -5 404 l0 404 26 31
c51 61 146 72 357 42z"/>
</g>
</svg>
