<?xml version="1.0" standalone="no"?>
<!DOCTYPE svg PUBLIC "-//W3C//DTD SVG 20010904//EN"
 "http://www.w3.org/TR/2001/REC-SVG-20010904/DTD/svg10.dtd">
<svg version="1.0" xmlns="http://www.w3.org/2000/svg"
 width="133.000000pt" height="132.000000pt" viewBox="0 0 133.000000 132.000000"
 preserveAspectRatio="xMidYMid meet">

<g transform="translate(0.000000,132.000000) scale(0.100000,-0.100000)"
fill="#ffffff" stroke="none">
<path d="M575 1305 c-144 -24 -222 -58 -319 -137 -254 -208 -319 -549 -159
-836 50 -91 164 -200 260 -249 190 -98 418 -104 598 -15 225 111 374 346 375
589 0 212 -113 423 -293 545 -70 47 -193 95 -268 103 -30 3 -67 8 -84 9 -16 2
-66 -2 -110 -9z m181 -253 c71 -57 53 -168 -31 -191 -74 -20 -145 32 -145 107
0 25 9 43 34 68 28 28 41 34 78 34 26 0 52 -7 64 -18z m34 -537 l0 -245 -100
0 -100 0 0 205 0 205 -60 0 -60 0 0 33 c0 19 3 37 7 40 3 4 75 7 160 7 l153 0
0 -245z"/>
</g>
</svg>
