<?xml version="1.0" standalone="no"?>
<!DOCTYPE svg PUBLIC "-//W3C//DTD SVG 20010904//EN"
 "http://www.w3.org/TR/2001/REC-SVG-20010904/DTD/svg10.dtd">
<svg version="1.0" xmlns="http://www.w3.org/2000/svg"
 width="159.000000pt" height="159.000000pt" viewBox="0 0 159.000000 159.000000"
 preserveAspectRatio="xMidYMid meet">

<g transform="translate(0.000000,159.000000) scale(0.100000,-0.100000)"
fill="#ffffff" stroke="none">
<path d="M346 1570 c-63 -25 -102 -62 -132 -125 l-24 -50 0 -600 c0 -582 1
-601 21 -645 25 -55 62 -95 114 -123 39 -21 52 -22 439 -25 261 -2 417 1 450
8 69 15 122 54 157 115 l29 50 0 485 0 485 -26 40 c-39 58 -322 338 -379 374
l-49 31 -275 0 c-248 -1 -281 -3 -325 -20z m550 -121 c16 -18 20 -42 24 -169
4 -104 9 -152 19 -164 11 -13 36 -16 156 -16 126 0 146 -2 166 -19 l24 -19 0
-424 c0 -388 -1 -426 -18 -451 -41 -63 -32 -62 -467 -62 -363 0 -398 1 -428
18 -63 34 -62 27 -62 653 0 502 2 570 16 600 9 19 26 40 38 47 26 15 140 23
352 25 152 2 162 1 180 -19z"/>
<path d="M706 1019 c-36 -28 -36 -96 0 -185 29 -74 31 -66 -43 -230 -36 -78
-39 -82 -97 -110 -70 -34 -136 -92 -136 -120 0 -34 29 -64 61 -64 49 0 85 26
135 95 52 74 56 77 172 116 102 35 115 35 159 8 47 -29 144 -37 178 -15 36 24
35 77 -2 106 -26 21 -35 22 -119 16 l-91 -6 -36 39 c-20 22 -48 58 -62 80 -24
35 -25 43 -16 78 6 21 11 68 11 105 0 60 -3 69 -26 87 -15 12 -34 21 -44 21
-10 0 -29 -9 -44 -21z m54 -91 c0 -32 -3 -39 -10 -28 -13 20 -13 70 0 70 6 0
10 -19 10 -42z m59 -279 l33 -39 -33 -14 c-19 -7 -49 -17 -67 -21 -31 -6 -32
-6 -23 17 27 67 42 98 49 97 4 0 22 -18 41 -40z m266 -79 c4 -6 -7 -10 -24
-10 -17 0 -31 5 -31 10 0 6 11 10 24 10 14 0 28 -4 31 -10z"/>
</g>
</svg>
