<?xml version="1.0" standalone="no"?>
<!DOCTYPE svg PUBLIC "-//W3C//DTD SVG 20010904//EN"
 "http://www.w3.org/TR/2001/REC-SVG-20010904/DTD/svg10.dtd">
<svg version="1.0" xmlns="http://www.w3.org/2000/svg"
 width="141.000000pt" height="141.000000pt" viewBox="0 0 141.000000 141.000000"
 preserveAspectRatio="xMidYMid meet">

<g transform="translate(0.000000,141.000000) scale(0.100000,-0.100000)"
fill="#ffffff" stroke="none">
<path d="M593 1343 c-17 -37 -36 -85 -43 -105 -12 -33 -43 -58 -72 -58 -6 0
-53 18 -105 40 l-95 41 -52 -48 c-82 -76 -81 -69 -35 -179 57 -136 55 -141
-74 -195 -56 -24 -105 -48 -109 -54 -10 -13 -10 -147 0 -161 4 -7 47 -28 97
-48 90 -37 125 -64 125 -95 0 -10 -18 -59 -40 -110 -22 -50 -40 -94 -40 -97 0
-3 27 -32 61 -66 l60 -62 106 44 c136 56 141 54 199 -85 l42 -100 86 -3 87 -3
20 48 c59 136 78 171 99 178 14 4 56 -7 126 -36 l106 -42 59 59 c32 32 59 62
59 67 0 5 -18 52 -41 105 -27 64 -38 103 -34 119 6 24 33 40 178 102 l48 20
-3 86 -3 86 -95 40 c-101 43 -135 70 -127 104 3 11 21 58 41 105 20 46 36 88
36 93 0 10 -115 127 -124 127 -3 0 -47 -18 -98 -40 -51 -22 -100 -40 -109 -40
-32 0 -58 36 -97 130 l-39 95 -85 3 -85 3 -30 -68z m223 -399 c181 -86 204
-340 41 -451 -179 -122 -410 -2 -411 214 0 114 77 219 188 253 44 13 137 5
182 -16z"/>
</g>
</svg>
