<?xml version="1.0" standalone="no"?>
<!DOCTYPE svg PUBLIC "-//W3C//DTD SVG 20010904//EN"
 "http://www.w3.org/TR/2001/REC-SVG-20010904/DTD/svg10.dtd">
<svg version="1.0" xmlns="http://www.w3.org/2000/svg"
 width="162.000000pt" height="162.000000pt" viewBox="0 0 162.000000 162.000000"
 preserveAspectRatio="xMidYMid meet">

<g transform="translate(0.000000,162.000000) scale(0.100000,-0.100000)"
fill="#ffffff" stroke="none">
<path d="M748 1490 c-243 -39 -438 -153 -542 -319 -53 -83 -98 -271 -66 -271
6 0 34 15 63 33 47 30 53 39 64 85 43 184 292 364 548 397 65 8 229 -17 325
-50 156 -53 280 -154 338 -274 23 -48 27 -68 27 -146 0 -101 -18 -155 -85
-255 -21 -31 -41 -67 -45 -80 -10 -32 -8 -103 6 -168 6 -29 8 -56 6 -59 -3 -2
-50 19 -105 47 l-100 52 -59 -12 c-32 -6 -67 -13 -79 -15 -20 -4 -91 -92 -81
-101 3 -3 46 2 96 12 l91 17 177 -76 c97 -42 179 -75 180 -73 2 2 -5 37 -16
77 -43 162 -37 223 34 337 109 175 120 317 36 487 -77 156 -233 273 -446 335
-81 24 -277 34 -367 20z"/>
<path d="M395 969 c-113 -19 -244 -84 -298 -148 -111 -133 -123 -265 -36 -412
34 -56 39 -73 39 -126 0 -33 -7 -80 -15 -103 -8 -23 -15 -44 -15 -46 0 -10 31
0 128 42 91 40 111 45 151 40 25 -3 83 -9 128 -12 201 -16 409 86 491 241 23
43 27 62 27 140 0 79 -3 96 -29 144 -92 175 -338 279 -571 240z"/>
</g>
</svg>
