<?xml version="1.0" standalone="no"?>
<!DOCTYPE svg PUBLIC "-//W3C//DTD SVG 20010904//EN"
 "http://www.w3.org/TR/2001/REC-SVG-20010904/DTD/svg10.dtd">
<svg version="1.0" xmlns="http://www.w3.org/2000/svg"
 width="125.000000pt" height="125.000000pt" viewBox="0 0 125.000000 125.000000"
 preserveAspectRatio="xMidYMid meet">

<g transform="translate(0.000000,125.000000) scale(0.100000,-0.100000)"
fill="#ffffff" stroke="none">
<path d="M505 1224 c-43 -23 -64 -44 -89 -84 -36 -58 -46 -109 -45 -245 1
-137 10 -176 48 -209 11 -11 21 -25 21 -32 0 -6 14 -38 30 -69 17 -31 30 -65
30 -74 0 -27 -40 -57 -93 -70 -84 -20 -196 -81 -238 -130 l-40 -45 3 -85 c3
-85 3 -85 37 -108 71 -48 195 -67 436 -67 159 0 207 4 293 22 119 26 206 61
221 90 16 29 14 118 -3 151 -34 65 -136 133 -251 166 -100 29 -105 32 -105 62
0 29 67 170 103 216 20 25 21 39 22 185 0 128 -3 166 -18 204 -20 52 -66 88
-111 88 -15 0 -40 10 -57 22 -40 30 -150 36 -194 12z"/>
</g>
</svg>
